STARTFONT 2.1
FONT -Monotype-Bookman Old Style-Regular-R-Normal--25-180-100-100-P-122-iso8859-9
SIZE 18 100 100
FONTBOUNDINGBOX 36 29 -5 -6

STARTPROPERTIES 24
FOUNDRY "Monotype"
FAMILY_NAME "Bookman Old Style"
WEIGHT_NAME "Regular"
SLANT "R"
SETWIDTH_NAME "Normal"
ADD_STYLE_NAME ""
PIXEL_SIZE 25
POINT_SIZE 180
RESOLUTION_X 100
RESOLUTION_Y 100
SPACING "P"
AVERAGE_WIDTH 122
CHARSET_REGISTRY "iso8859"
CHARSET_ENCODING "9"
FACE_NAME "Bookman Old Style ISO Latin5"
_DEC_DEVICE_FONTNAMES "PS=bookmanoldstyle-lat5"
COPYRIGHT "Copyright (c) 1993 Monotype Typography Ltd."
CAP_HEIGHT 19
X_HEIGHT 13
WEIGHT 10
QUAD_WIDTH 18
DEFAULT_CHAR 160
FONT_DESCENT 6
FONT_ASCENT 23
ENDPROPERTIES

CHARS 191

STARTCHAR space
ENCODING 32
SWIDTH 320 0
DWIDTH 8 0
BBX 0 0 0 0
BITMAP
ENDCHAR

STARTCHAR exclam
ENCODING 33
SWIDTH 300 0
DWIDTH 8 0
BBX 3 18 2 0
BITMAP
40
E0
E0
E0
E0
E0
E0
E0
40
40
40
40
40
40
00
E0
E0
E0
ENDCHAR

STARTCHAR quotedbl
ENCODING 34
SWIDTH 380 0
DWIDTH 9 0
BBX 6 6 2 11
BITMAP
CC
CC
CC
CC
44
44
ENDCHAR

STARTCHAR numbersign
ENCODING 35
SWIDTH 600 0
DWIDTH 15 0
BBX 13 17 1 -1
BITMAP
0460
0C60
0C60
0C40
0840
7FF8
08C0
08C0
18C0
18C0
FFF0
1080
1080
1180
1180
3180
3180
ENDCHAR

STARTCHAR dollar
ENCODING 36
SWIDTH 620 0
DWIDTH 16 0
BBX 13 23 1 -3
BITMAP
0200
0200
0200
1FA0
72F0
E270
C230
C218
E210
7A00
3F00
07E0
02F0
0238
8218
C218
E218
F230
DE70
47C0
0200
0200
0200
ENDCHAR

STARTCHAR percent
ENCODING 37
SWIDTH 900 0
DWIDTH 22 0
BBX 21 17 1 0
BITMAP
3C0180
660100
C30200
C30600
C30400
C30800
431800
663000
3C21E0
006330
00C618
008618
010618
030618
020618
040330
0C01E0
ENDCHAR

STARTCHAR ampersand
ENCODING 38
SWIDTH 800 0
DWIDTH 20 0
BBX 18 17 2 0
BITMAP
0F0000
198000
30C000
30C000
30C000
198000
0E1F00
338400
61C400
E0CC00
C0E800
C06980
C071C0
E030C0
6078C0
79DC80
1F0F00
ENDCHAR

STARTCHAR quoteright
ENCODING 39
SWIDTH 220 0
DWIDTH 5 0
BBX 4 7 0 11
BITMAP
60
70
70
10
30
60
C0
ENDCHAR

STARTCHAR parenleft
ENCODING 40
SWIDTH 300 0
DWIDTH 8 0
BBX 4 24 2 -6
BITMAP
10
30
20
60
60
60
C0
C0
C0
C0
C0
C0
C0
C0
C0
C0
C0
C0
60
60
60
30
10
10
ENDCHAR

STARTCHAR parenright
ENCODING 41
SWIDTH 300 0
DWIDTH 8 0
BBX 4 24 1 -6
BITMAP
80
C0
40
60
60
30
30
30
30
30
30
30
30
30
30
30
30
30
60
60
60
40
C0
80
ENDCHAR

STARTCHAR asterisk
ENCODING 42
SWIDTH 440 0
DWIDTH 11 0
BBX 8 8 2 9
BITMAP
18
18
81
FB
18
34
66
66
ENDCHAR

STARTCHAR plus
ENCODING 43
SWIDTH 600 0
DWIDTH 15 0
BBX 12 12 1 3
BITMAP
0600
0600
0600
0600
0600
FFF0
FFF0
0600
0600
0600
0600
0600
ENDCHAR

STARTCHAR comma
ENCODING 44
SWIDTH 320 0
DWIDTH 8 0
BBX 4 7 2 -4
BITMAP
60
70
70
10
30
60
C0
ENDCHAR

STARTCHAR minus
ENCODING 45
SWIDTH 600 0
DWIDTH 15 0
BBX 11 2 2 8
BITMAP
FFE0
FFE0
ENDCHAR

STARTCHAR period
ENCODING 46
SWIDTH 320 0
DWIDTH 8 0
BBX 3 3 3 0
BITMAP
E0
E0
E0
ENDCHAR

STARTCHAR slash
ENCODING 47
SWIDTH 600 0
DWIDTH 15 0
BBX 10 23 2 -5
BITMAP
00C0
00C0
0080
0180
0180
0300
0300
0300
0600
0600
0600
0C00
0C00
0800
1800
1800
1000
3000
3000
6000
6000
6000
C000
ENDCHAR

STARTCHAR zero
ENCODING 48
SWIDTH 620 0
DWIDTH 16 0
BBX 13 17 1 0
BITMAP
0F80
38E0
7070
6030
E038
E018
C018
C018
C018
C018
C018
E038
E038
6030
7070
38E0
0F80
ENDCHAR

STARTCHAR one
ENCODING 49
SWIDTH 620 0
DWIDTH 16 0
BBX 8 17 4 0
BITMAP
08
78
F8
18
18
18
18
18
18
18
18
18
18
18
18
18
FF
ENDCHAR

STARTCHAR two
ENCODING 50
SWIDTH 620 0
DWIDTH 16 0
BBX 12 17 1 0
BITMAP
1FC0
31E0
4070
C030
8030
8030
8030
0070
0060
00C0
0180
0700
0C00
1810
6010
FFF0
FFF0
ENDCHAR

STARTCHAR three
ENCODING 51
SWIDTH 620 0
DWIDTH 16 0
BBX 12 17 2 0
BITMAP
1F80
71C0
40E0
C060
0060
00E0
01C0
0F00
00C0
0060
0030
0030
C030
C070
E060
70C0
1F80
ENDCHAR

STARTCHAR four
ENCODING 52
SWIDTH 620 0
DWIDTH 16 0
BBX 13 17 1 0
BITMAP
00C0
01C0
0340
06C0
0CC0
18C0
10C0
20C0
60C0
C0C0
FFF8
FFF8
00C0
00C0
00C0
00C0
00C0
ENDCHAR

STARTCHAR five
ENCODING 53
SWIDTH 620 0
DWIDTH 16 0
BBX 12 18 2 0
BITMAP
0020
7FE0
7FE0
4000
4000
4000
4000
7F00
7FC0
00E0
0070
0030
0030
C030
C030
E060
70C0
1F80
ENDCHAR

STARTCHAR six
ENCODING 54
SWIDTH 620 0
DWIDTH 16 0
BBX 13 17 1 0
BITMAP
03E0
0E00
1800
3000
7000
6000
67C0
F870
F038
E038
E018
E018
6018
6038
3030
3870
0FC0
ENDCHAR

STARTCHAR seven
ENCODING 55
SWIDTH 620 0
DWIDTH 16 0
BBX 13 18 1 0
BITMAP
2000
7FF8
7FF8
4010
C020
0060
00C0
00C0
0180
0180
0300
0300
0700
0600
0600
0E00
0E00
0E00
ENDCHAR

STARTCHAR eight
ENCODING 56
SWIDTH 620 0
DWIDTH 16 0
BBX 13 17 1 0
BITMAP
0FC0
38E0
6030
6030
6030
7060
3CC0
0F80
1FE0
30F0
6038
C018
C018
C018
6030
3060
1FC0
ENDCHAR

STARTCHAR nine
ENCODING 57
SWIDTH 620 0
DWIDTH 16 0
BBX 13 17 1 0
BITMAP
1F80
70E0
6070
E030
C030
C038
C038
E038
6078
78D8
1F30
0030
0070
0060
00C0
0780
3E00
ENDCHAR

STARTCHAR colon
ENCODING 58
SWIDTH 320 0
DWIDTH 8 0
BBX 3 12 3 0
BITMAP
E0
E0
E0
00
00
00
00
00
00
E0
E0
E0
ENDCHAR

STARTCHAR semicolon
ENCODING 59
SWIDTH 320 0
DWIDTH 8 0
BBX 4 16 2 -4
BITMAP
70
70
70
00
00
00
00
00
00
60
70
70
10
30
60
C0
ENDCHAR

STARTCHAR less
ENCODING 60
SWIDTH 600 0
DWIDTH 15 0
BBX 11 11 2 2
BITMAP
0060
01E0
0780
3C00
F000
C000
7800
1E00
0380
00E0
0020
ENDCHAR

STARTCHAR equal
ENCODING 61
SWIDTH 600 0
DWIDTH 15 0
BBX 11 6 2 6
BITMAP
FFE0
FFE0
0000
0000
FFE0
FFE0
ENDCHAR

STARTCHAR greater
ENCODING 62
SWIDTH 600 0
DWIDTH 15 0
BBX 11 11 2 2
BITMAP
C000
F000
3C00
0780
01E0
00E0
03C0
0F00
7800
E000
8000
ENDCHAR

STARTCHAR question
ENCODING 63
SWIDTH 540 0
DWIDTH 14 0
BBX 11 17 1 0
BITMAP
3F00
E180
C0C0
C060
0060
0060
0060
00E0
03C0
1F80
1000
1000
1000
0000
3800
3800
3800
ENDCHAR

STARTCHAR at
ENCODING 64
SWIDTH 820 0
DWIDTH 21 0
BBX 22 23 0 -6
BITMAP
00FF00
0300C0
0C0020
180010
300010
201988
406708
40C308
C18308
830608
830608
860610
860E10
860C20
861C20
476CC4
438708
600008
200010
100020
0C0040
030380
00FC00
ENDCHAR

STARTCHAR A
ENCODING 65
SWIDTH 680 0
DWIDTH 17 0
BBX 17 17 0 0
BITMAP
01C000
01C000
01C000
036000
026000
027000
067000
043000
0C3800
081800
0FF800
181C00
100C00
100E00
300600
300F00
F81F80
ENDCHAR

STARTCHAR B
ENCODING 66
SWIDTH 740 0
DWIDTH 18 0
BBX 16 17 2 0
BITMAP
FFF0
301C
300C
300E
300E
300E
300C
3038
3FF0
301C
3006
3007
3007
3007
300E
301C
FFF8
ENDCHAR

STARTCHAR C
ENCODING 67
SWIDTH 740 0
DWIDTH 18 0
BBX 17 17 1 0
BITMAP
07F600
0E1E00
380600
300200
700300
600100
E00000
E00000
E00000
E00000
E00000
700000
700180
380300
1C0E00
0FF800
01E000
ENDCHAR

STARTCHAR D
ENCODING 68
SWIDTH 800 0
DWIDTH 20 0
BBX 17 17 2 0
BITMAP
FFF000
303C00
300E00
300600
300700
300300
300380
300380
300380
300380
300380
300300
300700
300700
300E00
303C00
FFF000
ENDCHAR

STARTCHAR E
ENCODING 69
SWIDTH 720 0
DWIDTH 18 0
BBX 16 17 1 0
BITMAP
FFFC
301C
3006
3006
3002
3040
3040
30C0
3FC0
30C0
3040
3040
3003
3002
3006
301E
FFFC
ENDCHAR

STARTCHAR F
ENCODING 70
SWIDTH 640 0
DWIDTH 16 0
BBX 14 17 2 0
BITMAP
FFF8
3018
300C
3004
3004
3040
3040
30C0
3FC0
30C0
3040
3040
3000
3000
3000
3000
FC00
ENDCHAR

STARTCHAR G
ENCODING 71
SWIDTH 800 0
DWIDTH 20 0
BBX 18 17 1 0
BITMAP
07F600
1E1E00
380600
300300
700300
600000
E00000
E00000
E01FC0
E00700
600300
700300
700300
380300
1C0700
0F1D00
07F100
ENDCHAR

STARTCHAR H
ENCODING 72
SWIDTH 800 0
DWIDTH 20 0
BBX 17 17 2 0
BITMAP
FC1F80
300600
300600
300600
300600
300600
300600
300600
3FFE00
300600
300600
300600
300600
300600
300600
300600
FC1F80
ENDCHAR

STARTCHAR I
ENCODING 73
SWIDTH 340 0
DWIDTH 9 0
BBX 6 17 1 0
BITMAP
FC
30
30
30
30
30
30
30
30
30
30
30
30
30
30
30
FC
ENDCHAR

STARTCHAR J
ENCODING 74
SWIDTH 600 0
DWIDTH 15 0
BBX 14 17 0 0
BITMAP
00FC
0030
0030
0030
0030
0030
0030
0030
0030
0030
0030
C030
C030
C030
E070
71E0
1F80
ENDCHAR

STARTCHAR K
ENCODING 75
SWIDTH 720 0
DWIDTH 18 0
BBX 16 17 2 0
BITMAP
FC3F
301C
3030
3020
3060
30C0
3180
3300
3780
3DC0
38C0
30E0
3070
3038
303C
301E
FC7F
ENDCHAR

STARTCHAR L
ENCODING 76
SWIDTH 600 0
DWIDTH 15 0
BBX 14 17 1 0
BITMAP
FC00
3000
3000
3000
3000
3000
3000
3000
3000
3000
3000
3004
300C
3008
3018
3078
FFF0
ENDCHAR

STARTCHAR M
ENCODING 77
SWIDTH 920 0
DWIDTH 23 0
BBX 20 17 1 0
BITMAP
FC01F0
3C01C0
340340
3602C0
3606C0
3606C0
3704C0
330CC0
3308C0
3188C0
3198C0
31D0C0
30D0C0
30F0C0
30E0C0
3060C0
FC63F0
ENDCHAR

STARTCHAR N
ENCODING 78
SWIDTH 740 0
DWIDTH 18 0
BBX 17 17 1 0
BITMAP
FC1F80
3C0600
360600
370600
330600
338600
318600
31C600
30E600
306600
307600
303E00
303E00
301E00
300E00
300E00
FC0600
ENDCHAR

STARTCHAR O
ENCODING 79
SWIDTH 800 0
DWIDTH 20 0
BBX 18 17 1 0
BITMAP
07F800
0E0E00
180700
300300
700380
600180
E001C0
E001C0
E001C0
E001C0
E001C0
600180
700380
300300
180700
0E1C00
03F000
ENDCHAR

STARTCHAR P
ENCODING 80
SWIDTH 620 0
DWIDTH 16 0
BBX 14 17 2 0
BITMAP
FFE0
3078
3018
301C
301C
301C
301C
3038
3070
3FE0
3000
3000
3000
3000
3000
3000
FC00
ENDCHAR

STARTCHAR Q
ENCODING 81
SWIDTH 820 0
DWIDTH 21 0
BBX 18 22 1 -5
BITMAP
03F800
0E1C00
180700
300300
700380
600180
E001C0
E001C0
E001C0
E001C0
E001C0
600180
700380
700380
380700
1C0E00
07F800
00C000
00C000
00E080
007F00
001C00
ENDCHAR

STARTCHAR R
ENCODING 82
SWIDTH 720 0
DWIDTH 18 0
BBX 16 17 2 0
BITMAP
FFF8
303C
300E
300E
300E
300E
300C
303C
3FF0
3180
31C0
30E0
3070
3038
3018
301C
FC0F
ENDCHAR

STARTCHAR S
ENCODING 83
SWIDTH 660 0
DWIDTH 16 0
BBX 13 17 2 0
BITMAP
3FA0
71F0
C070
C030
C010
E010
7800
3F00
0FE0
01F0
0038
8018
C018
C018
E030
D870
4FC0
ENDCHAR

STARTCHAR T
ENCODING 84
SWIDTH 620 0
DWIDTH 16 0
BBX 16 18 0 0
BITMAP
2004
7FFE
718E
4182
C183
4181
0180
0180
0180
0180
0180
0180
0180
0180
0180
0180
03C0
07E0
ENDCHAR

STARTCHAR U
ENCODING 85
SWIDTH 780 0
DWIDTH 20 0
BBX 17 17 1 0
BITMAP
FC1F80
300600
300600
300600
300600
300600
300600
300600
300600
300600
300600
300600
300400
180C00
1C1800
0FF000
03C000
ENDCHAR

STARTCHAR V
ENCODING 86
SWIDTH 700 0
DWIDTH 17 0
BBX 18 17 0 0
BITMAP
FC0FC0
380300
380200
380600
180600
1C0400
0C0C00
0E0800
061800
061800
071000
033000
03A000
01E000
01E000
01C000
00C000
ENDCHAR

STARTCHAR W
ENCODING 87
SWIDTH 960 0
DWIDTH 24 0
BBX 24 17 0 0
BITMAP
FC7E1F
38380C
38180C
181808
181C08
1C1C18
0C1C10
0C3610
0E2630
062620
066720
074360
034340
03C3C0
0381C0
038180
018180
ENDCHAR

STARTCHAR X
ENCODING 88
SWIDTH 720 0
DWIDTH 18 0
BBX 18 17 0 0
BITMAP
7E0F80
1C0600
1C0600
0E0C00
071800
03B000
03E000
01C000
00E000
01B000
037000
063800
0C1C00
080E00
180600
300700
FC1FC0
ENDCHAR

STARTCHAR Y
ENCODING 89
SWIDTH 640 0
DWIDTH 16 0
BBX 16 17 0 0
BITMAP
FE1F
380C
380C
1C18
0C10
0E30
0620
0760
03C0
0380
0180
0180
0180
0180
0180
0180
07E0
ENDCHAR

STARTCHAR Z
ENCODING 90
SWIDTH 640 0
DWIDTH 16 0
BBX 15 17 1 0
BITMAP
3FFC
7818
6038
C070
80E0
00C0
01C0
0380
0700
0600
0E00
1C02
3806
300C
701C
E078
FFF8
ENDCHAR

STARTCHAR bracketleft
ENCODING 91
SWIDTH 300 0
DWIDTH 8 0
BBX 4 23 2 -5
BITMAP
F0
C0
C0
C0
C0
C0
C0
C0
C0
C0
C0
C0
C0
C0
C0
C0
C0
C0
C0
C0
C0
C0
F0
ENDCHAR

STARTCHAR backslash
ENCODING 92
SWIDTH 600 0
DWIDTH 15 0
BBX 10 23 3 -5
BITMAP
C000
C000
6000
6000
6000
3000
3000
1000
1800
1800
0800
0C00
0C00
0400
0600
0600
0300
0300
0300
0180
0180
0180
00C0
ENDCHAR

STARTCHAR bracketright
ENCODING 93
SWIDTH 300 0
DWIDTH 8 0
BBX 4 23 1 -5
BITMAP
F0
30
30
30
30
30
30
30
30
30
30
30
30
30
30
30
30
30
30
30
30
30
F0
ENDCHAR

STARTCHAR asciicircum
ENCODING 94
SWIDTH 600 0
DWIDTH 15 0
BBX 13 10 1 7
BITMAP
0700
0700
0D80
0880
18C0
1060
3060
6030
6030
C018
ENDCHAR

STARTCHAR underscore
ENCODING 95
SWIDTH 500 0
DWIDTH 13 0
BBX 13 1 0 -3
BITMAP
FFF8
ENDCHAR

STARTCHAR quoteleft
ENCODING 96
SWIDTH 220 0
DWIDTH 5 0
BBX 4 7 1 11
BITMAP
30
60
C0
80
E0
E0
60
ENDCHAR

STARTCHAR a
ENCODING 97
SWIDTH 580 0
DWIDTH 15 0
BBX 14 12 1 0
BITMAP
1F80
70E0
6060
6060
0060
0FE0
7C60
E060
C060
C0E0
E360
7E3C
ENDCHAR

STARTCHAR b
ENCODING 98
SWIDTH 620 0
DWIDTH 16 0
BBX 13 18 1 0
BITMAP
3000
F000
3000
3000
3000
3000
37E0
3C70
3038
3018
3018
3018
3018
3018
3038
3830
3C70
27C0
ENDCHAR

STARTCHAR c
ENCODING 99
SWIDTH 520 0
DWIDTH 13 0
BBX 11 12 1 0
BITMAP
1F80
30C0
60E0
E060
C000
C000
C000
C000
E020
6060
38C0
1F80
ENDCHAR

STARTCHAR d
ENCODING 100
SWIDTH 620 0
DWIDTH 16 0
BBX 13 18 1 0
BITMAP
0060
01E0
0060
0060
0060
0060
1F60
71E0
60E0
E060
C060
C060
C060
C060
E060
60E0
71A0
1E78
ENDCHAR

STARTCHAR e
ENCODING 101
SWIDTH 520 0
DWIDTH 13 0
BBX 11 12 1 0
BITMAP
1F00
31C0
60C0
C060
FFE0
C000
C000
C000
E000
6060
38C0
1F80
ENDCHAR

STARTCHAR f
ENCODING 102
SWIDTH 320 0
DWIDTH 8 0
BBX 9 18 1 0
BITMAP
0F80
1B80
3080
3000
3000
3000
FC00
3000
3000
3000
3000
3000
3000
3000
3000
3000
3000
FC00
ENDCHAR

STARTCHAR g
ENCODING 103
SWIDTH 540 0
DWIDTH 14 0
BBX 13 17 1 -5
BITMAP
1FB8
30F8
6060
6060
6060
3060
39C0
3F80
6000
7000
5FC0
37F0
6038
C018
C018
6070
1FC0
ENDCHAR

STARTCHAR h
ENCODING 104
SWIDTH 660 0
DWIDTH 16 0
BBX 15 18 1 0
BITMAP
1000
F000
3000
3000
3000
3000
31E0
37F0
3C38
3018
3018
3018
3018
3018
3018
3018
3018
FC7E
ENDCHAR

STARTCHAR i
ENCODING 105
SWIDTH 300 0
DWIDTH 8 0
BBX 6 18 1 0
BITMAP
70
70
30
00
00
00
70
F0
30
30
30
30
30
30
30
30
30
FC
ENDCHAR

STARTCHAR j
ENCODING 106
SWIDTH 300 0
DWIDTH 8 0
BBX 7 23 -2 -5
BITMAP
0E
0E
04
00
00
00
1E
1E
06
06
06
06
06
06
06
06
06
06
06
06
86
EC
F8
ENDCHAR

STARTCHAR k
ENCODING 107
SWIDTH 620 0
DWIDTH 16 0
BBX 15 18 1 0
BITMAP
3000
F000
3000
3000
3000
3000
30FC
3070
30E0
3180
3300
3700
3B80
31C0
30E0
3070
3038
FCFE
ENDCHAR

STARTCHAR l
ENCODING 108
SWIDTH 300 0
DWIDTH 8 0
BBX 6 18 1 0
BITMAP
30
F0
30
30
30
30
30
30
30
30
30
30
30
30
30
30
30
FC
ENDCHAR

STARTCHAR m
ENCODING 109
SWIDTH 940 0
DWIDTH 23 0
BBX 22 12 1 0
BITMAP
11C1C0
F7E7F0
3C3830
383030
383030
383030
383030
383030
383030
383030
383030
FCFCFC
ENDCHAR

STARTCHAR n
ENCODING 110
SWIDTH 660 0
DWIDTH 16 0
BBX 15 12 1 0
BITMAP
11E0
F7F0
3C38
3018
3018
3018
3018
3018
3018
3018
3018
FC7E
ENDCHAR

STARTCHAR o
ENCODING 111
SWIDTH 560 0
DWIDTH 14 0
BBX 12 12 1 0
BITMAP
1F80
30C0
6060
E070
C030
C030
C030
C030
E070
6060
30C0
1F80
ENDCHAR

STARTCHAR p
ENCODING 112
SWIDTH 620 0
DWIDTH 16 0
BBX 13 17 1 -5
BITMAP
11C0
F7E0
3830
3038
3018
3018
3018
3018
3038
3830
3C70
37C0
3000
3000
3000
3000
FC00
ENDCHAR

STARTCHAR q
ENCODING 113
SWIDTH 580 0
DWIDTH 15 0
BBX 13 17 1 -5
BITMAP
1F20
71E0
6060
E060
C060
C060
C060
C060
E060
6060
71A0
1E60
0060
0060
0060
0060
01F8
ENDCHAR

STARTCHAR r
ENCODING 114
SWIDTH 440 0
DWIDTH 11 0
BBX 10 12 1 0
BITMAP
3380
F7C0
3880
3000
3000
3000
3000
3000
3000
3000
3000
FC00
ENDCHAR

STARTCHAR s
ENCODING 115
SWIDTH 520 0
DWIDTH 13 0
BBX 10 12 2 0
BITMAP
3F00
E380
C180
C080
7000
3E00
0F80
81C0
80C0
C0C0
7180
5F00
ENDCHAR

STARTCHAR t
ENCODING 116
SWIDTH 380 0
DWIDTH 9 0
BBX 8 16 1 0
BITMAP
10
10
30
70
FF
30
30
30
30
30
30
30
30
30
39
1E
ENDCHAR

STARTCHAR u
ENCODING 117
SWIDTH 680 0
DWIDTH 17 0
BBX 16 12 0 0
BITMAP
381C
F83C
180C
180C
180C
180C
180C
180C
180C
1C3C
0FEF
070E
ENDCHAR

STARTCHAR v
ENCODING 118
SWIDTH 520 0
DWIDTH 13 0
BBX 13 12 0 0
BITMAP
FCF8
7030
3020
3060
1840
18C0
1C80
0C80
0D80
0700
0700
0200
ENDCHAR

STARTCHAR w
ENCODING 119
SWIDTH 780 0
DWIDTH 20 0
BBX 20 12 0 0
BITMAP
FDF9F0
306060
387040
1870C0
187080
1C5880
0C9900
0C9900
078F00
070E00
070E00
020400
ENDCHAR

STARTCHAR x
ENCODING 120
SWIDTH 560 0
DWIDTH 14 0
BBX 14 12 0 0
BITMAP
FEFC
3830
1C60
0CC0
0780
0300
0780
0DC0
08E0
1030
7078
F8FC
ENDCHAR

STARTCHAR y
ENCODING 121
SWIDTH 540 0
DWIDTH 14 0
BBX 14 17 0 -5
BITMAP
FC7C
3810
1830
1820
1C20
0C60
0C40
06C0
0680
0380
0300
0100
0300
0200
4600
EC00
7800
ENDCHAR

STARTCHAR z
ENCODING 122
SWIDTH 480 0
DWIDTH 12 0
BBX 12 12 0 0
BITMAP
3FE0
30E0
61C0
4180
0300
0700
0E00
1C10
1830
3020
70E0
FFE0
ENDCHAR

STARTCHAR braceleft
ENCODING 123
SWIDTH 280 0
DWIDTH 7 0
BBX 7 22 1 -5
BITMAP
0E
10
10
30
30
38
18
18
18
30
C0
60
10
18
18
38
38
38
30
10
10
0E
ENDCHAR

STARTCHAR bar
ENCODING 124
SWIDTH 600 0
DWIDTH 15 0
BBX 2 23 7 -5
BITMAP
C0
C0
C0
C0
C0
C0
C0
C0
C0
C0
C0
C0
C0
C0
C0
C0
C0
C0
C0
C0
C0
C0
C0
ENDCHAR

STARTCHAR braceright
ENCODING 125
SWIDTH 280 0
DWIDTH 7 0
BBX 7 22 0 -5
BITMAP
E0
10
18
18
38
38
38
30
10
18
06
0C
10
30
30
30
18
18
18
10
10
E0
ENDCHAR

STARTCHAR asciitilde
ENCODING 126
SWIDTH 600 0
DWIDTH 15 0
BBX 11 4 2 6
BITMAP
3020
7C60
C7C0
8180
ENDCHAR

STARTCHAR space
ENCODING 160
SWIDTH 320 0
DWIDTH 9 0
BBX 0 0 0 0
BITMAP
ENDCHAR

STARTCHAR exclamdown
ENCODING 161
SWIDTH 300 0
DWIDTH 8 0
BBX 3 17 2 -5
BITMAP
E0
E0
E0
00
40
40
40
40
40
60
E0
E0
E0
E0
E0
E0
E0
ENDCHAR

STARTCHAR cent
ENCODING 162
SWIDTH 620 0
DWIDTH 16 0
BBX 11 17 3 0
BITMAP
0400
0400
0400
1F80
75C0
E4C0
C440
C400
C400
C400
E400
6460
3D80
1F00
0400
0400
0400
ENDCHAR

STARTCHAR sterling
ENCODING 163
SWIDTH 620 0
DWIDTH 16 0
BBX 15 17 0 0
BITMAP
07E0
0E38
1C08
180C
180C
1800
1C00
FFC0
0C00
0E00
0600
0602
7A02
CE06
8784
CDFC
7878
ENDCHAR

STARTCHAR currency
ENCODING 164
SWIDTH 600 0
DWIDTH 15 0
BBX 11 11 2 3
BITMAP
CE60
FFE0
60C0
4040
C060
C060
C060
4040
60C0
FFE0
CE60
ENDCHAR

STARTCHAR yen
ENCODING 165
SWIDTH 620 0
DWIDTH 16 0
BBX 16 17 0 0
BITMAP
FE1F
380C
380C
1C18
0C10
0E30
0620
0760
0340
3FFE
0180
0180
3FFE
0180
0180
0180
07E0
ENDCHAR

STARTCHAR brokenbar
ENCODING 166
SWIDTH 600 0
DWIDTH 15 0
BBX 2 23 7 -5
BITMAP
C0
C0
C0
C0
C0
C0
C0
C0
C0
C0
80
00
40
C0
C0
C0
C0
C0
C0
C0
C0
C0
C0
ENDCHAR

STARTCHAR section
ENCODING 167
SWIDTH 520 0
DWIDTH 13 0
BBX 11 22 1 -5
BITMAP
3F80
61C0
C0E0
C0E0
C040
7000
1E00
3F80
63C0
40E0
C060
C060
E040
7CC0
3F80
03C0
00E0
C060
C060
C060
71C0
1F00
ENDCHAR

STARTCHAR dieresis
ENCODING 168
SWIDTH 420 0
DWIDTH 10 0
BBX 7 3 2 14
BITMAP
EE
EE
EE
ENDCHAR

STARTCHAR copyright
ENCODING 169
SWIDTH 740 0
DWIDTH 18 0
BBX 17 17 1 0
BITMAP
03E000
0C1800
100400
21EA00
461900
4C0900
980080
980080
980080
980080
980080
4C0880
461100
21E200
100400
0C1800
03E000
ENDCHAR

STARTCHAR ordfeminine
ENCODING 170
SWIDTH 420 0
DWIDTH 10 0
BBX 10 8 1 9
BITMAP
3E00
6300
4300
1F00
7300
C300
C700
79C0
ENDCHAR

STARTCHAR guillemotleft
ENCODING 171
SWIDTH 360 0
DWIDTH 9 0
BBX 6 8 1 2
BITMAP
24
6C
48
D8
D8
6C
6C
24
ENDCHAR

STARTCHAR logicalnot
ENCODING 172
SWIDTH 600 0
DWIDTH 15 0
BBX 12 5 1 6
BITMAP
FFF0
0010
0010
0010
0010
ENDCHAR

STARTCHAR hyphen
ENCODING 173
SWIDTH 400 0
DWIDTH 10 0
BBX 8 2 1 5
BITMAP
FF
FF
ENDCHAR

STARTCHAR registered
ENCODING 174
SWIDTH 740 0
DWIDTH 18 0
BBX 17 17 1 0
BITMAP
03F000
0C0800
100400
2FC200
467100
463080
863080
866080
87C080
86C080
866080
462080
463100
2F1A00
100400
0C1800
03E000
ENDCHAR

STARTCHAR macron
ENCODING 175
SWIDTH 440 0
DWIDTH 11 0
BBX 7 1 2 15
BITMAP
FE
ENDCHAR

STARTCHAR degree
ENCODING 176
SWIDTH 400 0
DWIDTH 10 0
BBX 7 6 1 11
BITMAP
7C
C6
82
82
C6
3C
ENDCHAR

STARTCHAR plusminus
ENCODING 177
SWIDTH 600 0
DWIDTH 15 0
BBX 12 15 1 1
BITMAP
0600
0600
0600
0600
0600
FFF0
FFF0
0600
0600
0600
0600
0600
0000
FFF0
FFF0
ENDCHAR

STARTCHAR twosuperior
ENCODING 178
SWIDTH 372 0
DWIDTH 9 0
BBX 8 9 1 8
BITMAP
3C
47
83
83
06
0C
18
61
FF
ENDCHAR

STARTCHAR threesuperior
ENCODING 179
SWIDTH 372 0
DWIDTH 9 0
BBX 8 9 0 8
BITMAP
3E
63
43
02
1C
03
43
C2
3C
ENDCHAR

STARTCHAR acute
ENCODING 180
SWIDTH 340 0
DWIDTH 9 0
BBX 5 3 2 14
BITMAP
38
70
80
ENDCHAR

STARTCHAR mu
ENCODING 181
SWIDTH 680 0
DWIDTH 17 0
BBX 12 17 3 -5
BITMAP
60C0
60C0
60C0
60C0
60C0
60C0
60C0
60C0
60C0
60C0
7140
5EF0
5C40
4000
C000
C000
4000
ENDCHAR

STARTCHAR paragraph
ENCODING 182
SWIDTH 600 0
DWIDTH 15 0
BBX 12 22 2 -5
BITMAP
1FF0
7E40
7E40
FE40
FE40
FE40
7E40
7E40
1E40
0240
0240
0240
0240
0240
0240
0240
0240
0240
0240
0240
0240
0240
ENDCHAR

STARTCHAR periodcentered
ENCODING 183
SWIDTH 320 0
DWIDTH 8 0
BBX 3 3 3 7
BITMAP
E0
E0
E0
ENDCHAR

STARTCHAR cedilla
ENCODING 184
SWIDTH 320 0
DWIDTH 8 0
BBX 5 5 1 -5
BITMAP
20
70
08
C8
70
ENDCHAR

STARTCHAR onesuperior
ENCODING 185
SWIDTH 372 0
DWIDTH 9 0
BBX 6 9 2 8
BITMAP
F0
30
30
30
30
30
30
30
FC
ENDCHAR

STARTCHAR ordmasculine
ENCODING 186
SWIDTH 420 0
DWIDTH 10 0
BBX 8 8 1 9
BITMAP
3C
66
C3
C3
C3
C3
66
3C
ENDCHAR

STARTCHAR guillemotright
ENCODING 187
SWIDTH 360 0
DWIDTH 9 0
BBX 6 8 2 2
BITMAP
90
D8
48
6C
6C
D8
D8
90
ENDCHAR

STARTCHAR onequarter
ENCODING 188
SWIDTH 930 0
DWIDTH 23 0
BBX 20 17 2 0
BITMAP
F00300
300600
300400
300800
301800
301000
302000
306000
FC40C0
0081C0
0182C0
0104C0
0208C0
061FF0
0400C0
0800C0
1800C0
ENDCHAR

STARTCHAR onehalf
ENCODING 189
SWIDTH 930 0
DWIDTH 23 0
BBX 19 17 3 0
BITMAP
F00300
300400
300C00
300800
301000
303000
302000
306000
FCC780
008C60
018860
010860
020040
060080
040300
080620
180FE0
ENDCHAR

STARTCHAR threequarters
ENCODING 190
SWIDTH 930 0
DWIDTH 23 0
BBX 22 17 1 0
BITMAP
3E00C0
630080
430180
020300
1C0200
030600
430C00
C30800
3C1030
003070
0020B0
004130
00C230
0087FC
010030
030030
060030
ENDCHAR

STARTCHAR questiondown
ENCODING 191
SWIDTH 540 0
DWIDTH 14 0
BBX 11 17 1 -5
BITMAP
0380
0380
0100
0000
0100
0100
0100
3F00
7800
E000
C000
C000
C000
E020
6060
30E0
1F80
ENDCHAR

STARTCHAR Agrave
ENCODING 192
SWIDTH 680 0
DWIDTH 17 0
BBX 17 21 0 0
BITMAP
038000
01E000
002000
000000
01C000
01C000
01C000
036000
026000
027000
067000
043000
0C3800
081800
0FF800
181C00
100C00
100E00
300600
300F00
F81F80
ENDCHAR

STARTCHAR Aacute
ENCODING 193
SWIDTH 680 0
DWIDTH 17 0
BBX 17 21 0 0
BITMAP
00E000
01C000
020000
000000
01C000
01C000
01C000
036000
026000
027000
067000
043000
0C3800
081800
0FF800
181C00
100C00
100E00
300600
300F00
F81F80
ENDCHAR

STARTCHAR Acircumflex
ENCODING 194
SWIDTH 680 0
DWIDTH 17 0
BBX 17 21 0 0
BITMAP
01C000
03E000
041000
000000
01C000
01C000
014000
036000
026000
027000
067000
043000
0C3800
081800
0FF800
181C00
100C00
100E00
300600
300F00
F81F80
ENDCHAR

STARTCHAR Atilde
ENCODING 195
SWIDTH 680 0
DWIDTH 17 0
BBX 17 21 0 0
BITMAP
039000
07F000
046000
000000
01C000
01C000
014000
036000
026000
027000
067000
043000
0C3800
081800
0FF800
181C00
100C00
100E00
300600
300F00
F81F80
ENDCHAR

STARTCHAR Adieresis
ENCODING 196
SWIDTH 680 0
DWIDTH 17 0
BBX 17 21 0 0
BITMAP
077000
077000
077000
000000
01C000
01C000
014000
036000
026000
027000
067000
043000
0C3800
081800
0FF800
181C00
100C00
100E00
200600
300F00
F81F80
ENDCHAR

STARTCHAR Aring
ENCODING 197
SWIDTH 680 0
DWIDTH 17 0
BBX 17 23 0 0
BITMAP
01C000
022000
022000
022000
01C000
000000
01C000
01C000
016000
036000
026000
067000
063000
043000
0C3800
081800
0FFC00
181C00
100C00
300E00
300600
700F00
F81F80
ENDCHAR

STARTCHAR AE
ENCODING 198
SWIDTH 1260 0
DWIDTH 32 0
BBX 31 17 0 0
BITMAP
007FFFF8
0030C038
0030C00C
0060C00C
0060C084
00C0C080
0180C080
0180C180
03FFFF80
0600C180
0600C080
0C00C080
1C00C006
1800C004
3000C00C
7000C03C
FC03FFF8
ENDCHAR

STARTCHAR Ccedilla
ENCODING 199
SWIDTH 740 0
DWIDTH 18 0
BBX 16 21 1 -4
BITMAP
07F4
1E1C
380E
3006
7002
6003
E000
E000
E000
E000
E000
7000
7001
3802
1C0C
0FF8
00C0
0380
0040
0240
0380
ENDCHAR

STARTCHAR Egrave
ENCODING 200
SWIDTH 720 0
DWIDTH 18 0
BBX 16 22 1 0
BITMAP
0200
0780
01C0
0000
0000
FFFC
301C
3006
3006
3002
3040
3040
30C0
3FC0
30C0
3040
3040
3003
3002
3006
301E
FFFC
ENDCHAR

STARTCHAR Eacute
ENCODING 201
SWIDTH 720 0
DWIDTH 18 0
BBX 16 22 1 0
BITMAP
00C0
01C0
0780
0000
0000
FFFC
301C
3006
3006
3002
3040
3040
30C0
3FC0
30C0
3040
3040
3003
3002
3006
301E
FFFC
ENDCHAR

STARTCHAR Ecircumflex
ENCODING 202
SWIDTH 720 0
DWIDTH 18 0
BBX 16 22 1 0
BITMAP
0080
03C0
0E60
0000
0000
FFFC
301C
3006
3006
3002
3040
3040
30C0
3FC0
30C0
3040
3040
3003
3002
3006
301E
FFFC
ENDCHAR

STARTCHAR Edieresis
ENCODING 203
SWIDTH 720 0
DWIDTH 18 0
BBX 16 21 2 0
BITMAP
06E0
0EE0
0440
0000
FFFC
301C
3006
3006
3002
3040
3040
31C0
3FC0
30C0
3040
3040
3003
3002
3006
301E
FFFC
ENDCHAR

STARTCHAR Igrave
ENCODING 204
SWIDTH 340 0
DWIDTH 9 0
BBX 6 22 1 0
BITMAP
C0
70
3C
00
00
FC
30
30
30
30
30
30
30
30
30
30
30
30
30
30
30
FC
ENDCHAR

STARTCHAR Iacute
ENCODING 205
SWIDTH 340 0
DWIDTH 9 0
BBX 6 22 1 0
BITMAP
0C
38
F0
00
00
FC
30
30
30
30
30
30
30
30
30
30
30
30
30
30
30
FC
ENDCHAR

STARTCHAR Icircumflex
ENCODING 206
SWIDTH 340 0
DWIDTH 9 0
BBX 8 22 0 0
BITMAP
08
3C
E7
00
00
7E
18
18
18
18
18
18
18
18
18
18
18
18
18
18
18
7E
ENDCHAR

STARTCHAR Idieresis
ENCODING 207
SWIDTH 340 0
DWIDTH 9 0
BBX 7 21 1 0
BITMAP
EE
EE
44
00
7E
18
18
18
18
18
18
18
18
18
18
18
18
18
18
18
7E
ENDCHAR

STARTCHAR Gbreve
ENCODING 208
SWIDTH 800 0
DWIDTH 20 0
BBX 18 21 1 0
BITMAP
060800
03F000
00E000
000000
07F600
0E1E00
380600
300300
700300
600000
E00000
E00000
E01FC0
E00700
600300
700300
700300
380300
1C0700
0F1D00
07F100
ENDCHAR

STARTCHAR Ntilde
ENCODING 209
SWIDTH 740 0
DWIDTH 18 0
BBX 17 21 1 0
BITMAP
07F000
04E000
000000
000000
FC1F80
3C0600
360600
370600
330600
338600
318600
31C600
30E600
306600
307600
303E00
303E00
301E00
300E00
300E00
FC0600
ENDCHAR

STARTCHAR Ograve
ENCODING 210
SWIDTH 800 0
DWIDTH 20 0
BBX 18 22 1 0
BITMAP
010000
038000
01F000
000000
000000
07F800
0E0C00
380700
300300
700380
600180
E001C0
E001C0
E001C0
E001C0
E001C0
600180
700380
300300
180700
0E1C00
03F000
ENDCHAR

STARTCHAR Oacute
ENCODING 211
SWIDTH 800 0
DWIDTH 20 0
BBX 18 22 1 0
BITMAP
001000
00F000
03E000
000000
000000
07F800
0E0C00
380700
300300
700380
600180
E001C0
E001C0
E001C0
E001C0
E001C0
600180
700380
300300
180700
0E1C00
03F000
ENDCHAR

STARTCHAR Ocircumflex
ENCODING 212
SWIDTH 800 0
DWIDTH 20 0
BBX 18 21 1 0
BITMAP
00C000
07B000
020800
000000
07F800
0E0C00
380700
300300
700380
600180
E001C0
E001C0
E001C0
E001C0
E001C0
600180
700380
300300
180700
0E1C00
03F000
ENDCHAR

STARTCHAR Otilde
ENCODING 213
SWIDTH 800 0
DWIDTH 20 0
BBX 18 20 1 0
BITMAP
07F800
026000
000000
07F800
0E0C00
380700
300300
700380
600180
E001C0
E001C0
E001C0
E001C0
E001C0
600180
700380
300300
180700
0E1C00
03F000
ENDCHAR

STARTCHAR Odieresis
ENCODING 214
SWIDTH 800 0
DWIDTH 20 0
BBX 17 21 2 0
BITMAP
077000
077000
033000
000000
07F000
1E1C00
380E00
300600
700300
600300
E00380
E00380
E00380
E00380
E00380
600300
700700
300600
380E00
0E3C00
07F000
ENDCHAR

STARTCHAR multiply
ENCODING 215
SWIDTH 600 0
DWIDTH 15 0
BBX 11 11 2 3
BITMAP
4040
E0E0
71C0
3B80
1F00
0E00
1F00
3B80
71C0
E0E0
4040
ENDCHAR

STARTCHAR Oslash
ENCODING 216
SWIDTH 800 0
DWIDTH 20 0
BBX 18 17 1 0
BITMAP
07F8C0
0E1D00
180700
300700
700B80
601980
E031C0
E061C0
E0C1C0
E181C0
E301C0
660180
7C0380
380300
180700
2E1C00
C3F000
ENDCHAR

STARTCHAR Ugrave
ENCODING 217
SWIDTH 780 0
DWIDTH 20 0
BBX 17 22 1 0
BITMAP
020000
038000
01E000
000000
000000
FC1F80
300600
300600
300600
300600
300600
300600
300600
300600
300600
300600
300600
300600
180C00
1C1800
0FF000
03C000
ENDCHAR

STARTCHAR Uacute
ENCODING 218
SWIDTH 780 0
DWIDTH 20 0
BBX 17 22 1 0
BITMAP
004000
00E000
038000
000000
000000
FC1F80
300600
300600
300600
300600
300600
300600
300600
300600
300600
300600
300600
300600
180C00
1C1800
0FF000
03C000
ENDCHAR

STARTCHAR Ucircumflex
ENCODING 219
SWIDTH 780 0
DWIDTH 20 0
BBX 17 22 1 0
BITMAP
008000
01C000
077000
000000
000000
FC1F80
300600
300600
300600
300600
300600
300600
300600
300600
300600
300600
300600
300600
180C00
1C1800
0FF000
03C000
ENDCHAR

STARTCHAR Udieresis
ENCODING 220
SWIDTH 780 0
DWIDTH 20 0
BBX 17 21 1 0
BITMAP
077000
077000
022000
000000
FC1F80
300600
300600
300600
300600
300600
300600
300600
300600
300600
300600
300600
300600
180C00
1C1C00
0FF000
01E000
ENDCHAR

STARTCHAR Idotaccent
ENCODING 221
SWIDTH 340 0
DWIDTH 9 0
BBX 6 21 1 0
BITMAP
38
38
38
00
FC
30
30
30
30
30
30
30
30
30
30
30
30
30
30
30
FC
ENDCHAR

STARTCHAR Scedilla
ENCODING 222
SWIDTH 660 0
DWIDTH 16 0
BBX 14 21 2 -4
BITMAP
0F00
3FD0
6078
C038
C018
E00C
7800
3F80
0FF0
00F8
803C
800C
C00C
E01C
F038
5FF0
0180
0380
0040
0640
0380
ENDCHAR

STARTCHAR germandbls
ENCODING 223
SWIDTH 660 0
DWIDTH 16 0
BBX 15 18 1 0
BITMAP
07C0
1C70
1830
3030
30F0
3180
F300
3380
31C0
30F0
303C
300E
3006
3006
3206
370C
371C
F1F0
ENDCHAR

STARTCHAR agrave
ENCODING 224
SWIDTH 580 0
DWIDTH 15 0
BBX 14 17 1 0
BITMAP
0E00
0780
00C0
0000
0000
1F80
70E0
6060
6060
0060
0FE0
3C60
E060
C060
C0E0
E360
7E3C
ENDCHAR

STARTCHAR aacute
ENCODING 225
SWIDTH 580 0
DWIDTH 15 0
BBX 14 17 1 0
BITMAP
01C0
0780
0800
0000
0000
1F80
70E0
6060
6060
0060
0FE0
3C60
E060
C060
C0E0
E360
7E3C
ENDCHAR

STARTCHAR acircumflex
ENCODING 226
SWIDTH 580 0
DWIDTH 15 0
BBX 14 17 1 0
BITMAP
0300
0FE0
1040
0000
0000
1F80
70E0
6060
6060
0060
0FE0
3C60
E060
C060
C0E0
E360
7E3C
ENDCHAR

STARTCHAR atilde
ENCODING 227
SWIDTH 580 0
DWIDTH 15 0
BBX 14 16 1 0
BITMAP
0FE0
1180
0000
0000
1F80
70E0
6060
6060
0060
0FE0
3C60
E060
C060
C0E0
E360
7E3C
ENDCHAR

STARTCHAR adieresis
ENCODING 228
SWIDTH 580 0
DWIDTH 15 0
BBX 13 17 1 0
BITMAP
1DC0
1DC0
1DC0
0000
0000
1F00
71C0
60C0
60C0
00C0
0FC0
78C0
E0C0
C0C0
C1C0
E340
7C78
ENDCHAR

STARTCHAR aring
ENCODING 229
SWIDTH 580 0
DWIDTH 15 0
BBX 14 19 1 0
BITMAP
0700
0880
0880
0880
0700
0000
0000
1F80
70E0
6060
6060
0060
0FE0
7860
E060
C060
C0E0
E360
7C3C
ENDCHAR

STARTCHAR ae
ENCODING 230
SWIDTH 860 0
DWIDTH 22 0
BBX 20 12 1 0
BITMAP
1F8F80
70D8E0
607060
606070
207FF0
0FE000
386000
E06000
C07000
C0D030
E31C60
7E0F80
ENDCHAR

STARTCHAR ccedilla
ENCODING 231
SWIDTH 520 0
DWIDTH 13 0
BBX 12 17 1 -5
BITMAP
1F80
38E0
6060
E060
C000
C000
C000
E000
E010
7020
38C0
1F80
0800
0E00
0100
1900
0E00
ENDCHAR

STARTCHAR egrave
ENCODING 232
SWIDTH 520 0
DWIDTH 13 0
BBX 11 17 1 0
BITMAP
1C00
1E00
0100
0000
0000
1F00
31C0
60C0
C060
FFE0
C000
C000
C000
E000
6060
38C0
1F00
ENDCHAR

STARTCHAR eacute
ENCODING 233
SWIDTH 520 0
DWIDTH 13 0
BBX 11 17 1 0
BITMAP
0700
0F00
1000
0000
0000
1F00
31C0
60C0
C060
FFE0
C000
C000
C000
E000
6060
38C0
1F00
ENDCHAR

STARTCHAR ecircumflex
ENCODING 234
SWIDTH 520 0
DWIDTH 13 0
BBX 11 17 1 0
BITMAP
0C00
1F00
2080
0000
0000
1F00
31C0
60C0
C060
FFE0
C000
C000
C000
E000
6060
38C0
1F00
ENDCHAR

STARTCHAR edieresis
ENCODING 235
SWIDTH 520 0
DWIDTH 13 0
BBX 11 17 1 0
BITMAP
3B80
3B80
3B80
0000
0000
1F00
31C0
60C0
C060
FFE0
C000
C000
C000
E000
6060
38C0
1F80
ENDCHAR

STARTCHAR igrave
ENCODING 236
SWIDTH 300 0
DWIDTH 8 0
BBX 6 17 1 0
BITMAP
E0
78
0C
00
00
30
F0
30
30
30
30
30
30
30
30
30
FC
ENDCHAR

STARTCHAR iacute
ENCODING 237
SWIDTH 300 0
DWIDTH 8 0
BBX 6 17 1 0
BITMAP
1C
78
C0
00
00
30
F0
30
30
30
30
30
30
30
30
30
FC
ENDCHAR

STARTCHAR icircumflex
ENCODING 238
SWIDTH 300 0
DWIDTH 8 0
BBX 8 17 0 0
BITMAP
18
FF
42
00
00
18
78
18
18
18
18
18
18
18
18
18
7E
ENDCHAR

STARTCHAR idieresis
ENCODING 239
SWIDTH 300 0
DWIDTH 8 0
BBX 7 17 0 0
BITMAP
EE
EE
EE
00
00
18
78
18
18
18
18
18
18
18
18
18
7E
ENDCHAR

STARTCHAR gbreve
ENCODING 240
SWIDTH 540 0
DWIDTH 14 0
BBX 13 22 1 -5
BITMAP
3060
1FC0
0700
0000
0000
1FB8
38F8
7060
6060
6060
3060
39C0
3F80
6000
7000
5FC0
37F0
6038
C018
C018
6070
1FC0
ENDCHAR

STARTCHAR ntilde
ENCODING 241
SWIDTH 660 0
DWIDTH 16 0
BBX 15 16 1 0
BITMAP
0FE0
08C0
0000
0000
11E0
F7F0
3C38
3018
3018
3018
3018
3018
3018
3018
3018
FC7E
ENDCHAR

STARTCHAR ograve
ENCODING 242
SWIDTH 560 0
DWIDTH 14 0
BBX 12 17 1 0
BITMAP
1C00
0F00
0080
0000
0000
1F80
30C0
6060
E070
C030
C030
C030
C030
E070
6060
30C0
1F80
ENDCHAR

STARTCHAR oacute
ENCODING 243
SWIDTH 560 0
DWIDTH 14 0
BBX 12 17 1 0
BITMAP
0380
0F00
1000
0000
0000
1F80
30C0
6060
E070
C030
C030
C030
C030
E070
6060
30C0
1F80
ENDCHAR

STARTCHAR ocircumflex
ENCODING 244
SWIDTH 560 0
DWIDTH 14 0
BBX 12 17 1 0
BITMAP
0600
1F80
30C0
0000
0000
1F80
30C0
6060
E070
C030
C030
C030
C030
E070
6060
30C0
1F80
ENDCHAR

STARTCHAR otilde
ENCODING 245
SWIDTH 560 0
DWIDTH 14 0
BBX 12 16 1 0
BITMAP
1FC0
2380
0000
0000
1F80
30C0
6060
E070
C030
C030
C030
C030
E070
6060
30C0
1F80
ENDCHAR

STARTCHAR odieresis
ENCODING 246
SWIDTH 560 0
DWIDTH 14 0
BBX 11 17 2 0
BITMAP
3B80
3B80
1B80
0000
0000
1F00
71C0
60C0
C060
C060
C060
C060
C060
C060
60C0
31C0
1F00
ENDCHAR

STARTCHAR divide
ENCODING 247
SWIDTH 600 0
DWIDTH 15 0
BBX 12 10 1 4
BITMAP
0600
0600
0000
0000
FFF0
FFF0
0000
0000
0600
0600
ENDCHAR

STARTCHAR oslash
ENCODING 248
SWIDTH 560 0
DWIDTH 14 0
BBX 12 12 1 0
BITMAP
1FB0
3060
60E0
E0B0
C130
C230
C430
C830
F070
6060
70C0
DF80
ENDCHAR

STARTCHAR ugrave
ENCODING 249
SWIDTH 680 0
DWIDTH 17 0
BBX 16 17 0 0
BITMAP
0300
0380
00E0
0000
0000
381C
F83C
180C
180C
180C
180C
180C
180C
180C
1C3C
0FEF
070E
ENDCHAR

STARTCHAR uacute
ENCODING 250
SWIDTH 680 0
DWIDTH 17 0
BBX 16 17 0 0
BITMAP
0060
01E0
0380
0000
0000
381C
F83C
180C
180C
180C
180C
180C
180C
180C
1C3C
0FEF
070E
ENDCHAR

STARTCHAR ucircumflex
ENCODING 251
SWIDTH 680 0
DWIDTH 17 0
BBX 16 17 0 0
BITMAP
0080
03C0
0670
0000
0000
381C
F83C
180C
180C
180C
180C
180C
180C
180C
1C3C
0FEF
070E
ENDCHAR

STARTCHAR udieresis
ENCODING 252
SWIDTH 680 0
DWIDTH 17 0
BBX 16 16 0 0
BITMAP
0770
0770
0220
0000
381C
F83C
180C
180C
180C
180C
180C
180C
180C
1C3C
0FEF
078E
ENDCHAR

STARTCHAR dotlessi
ENCODING 253
SWIDTH 300 0
DWIDTH 8 0
BBX 6 12 1 0
BITMAP
30
F0
30
30
30
30
30
30
30
30
30
FC
ENDCHAR

STARTCHAR scedilla
ENCODING 254
SWIDTH 520 0
DWIDTH 13 0
BBX 10 17 2 -5
BITMAP
3F00
E380
C180
C080
7800
3E00
0F80
81C0
C0C0
C0C0
7180
5F00
0400
0E00
0100
1900
0E00
ENDCHAR

STARTCHAR ydieresis
ENCODING 255
SWIDTH 540 0
DWIDTH 14 0
BBX 14 22 0 -5
BITMAP
1DC0
1DC0
1DC0
0000
0000
FC7C
7010
3030
1820
1860
1C40
0C40
0EC0
0680
0780
0300
0300
0200
0600
8400
CC00
F800
ENDCHAR
ENDFONT
